<svg width="577" height="433" version="1.1" xmlns="http://www.w3.org/2000/svg" desc="Created with imagetracer.js version 1.2.6" ><path fill="rgb(0,0,0)" stroke="rgb(0,0,0)" stroke-width="1" opacity="0" d="M 0 0 L 577 0 L 577 433 L 0 433 L 0 0 Z M 300 123 L 300 124 L 302 124 L 300 123 Z M 305 124 L 305 125 L 307 125 L 305 124 Z M 267 125 L 267 126 L 269 126 L 267 125 Z M 275 125 L 256 130 Q 242 136 232 144 L 218 158 L 218 160 L 215 162 Q 216 165 214 164 Q 211 165 213 167 L 212 167 L 208 174 Q 204 175 207 177 L 205 177 L 204 182 L 204 184 L 203 184 L 203 186 Q 204 188 201 187 L 202 190 L 199 196 L 199 200 L 198 203 L 198 229 L 197 230 Q 200 231 199 236 L 199 238 L 208 261 L 220 278 Q 231 290 246 298 L 260 304 L 277 308 L 302 308 L 319 304 L 335 297 L 347 288 Q 349 289 348 287 L 356 280 Q 355 277 358 278 L 362 273 Q 361 270 364 271 L 369 264 Q 368 259 371 260 L 374 252 L 374 250 L 376 245 Q 379 243 377 242 L 380 230 L 380 208 L 378 198 L 378 194 L 376 191 L 376 187 L 374 185 L 375 184 L 374 183 L 374 182 L 371 176 Q 372 173 369 174 L 367 168 L 358 156 Q 343 138 320 129 L 303 125 L 275 125 Z M 310 125 L 310 126 L 312 126 L 310 125 Z " /><path fill="rgb(207,195,242)" stroke="rgb(207,195,242)" stroke-width="1" opacity="0.984313725490196" d="M 330.5 184 Q 341.6 182.4 345 188.5 Q 348.3 192.2 347 200.5 L 341.5 207 Q 338.6 209.6 332.5 209 L 325 204.5 Q 321.7 201.3 322 194.5 Q 323.5 188 328.5 185 L 330.5 184 Z " /><path fill="rgb(207,195,242)" stroke="rgb(207,195,242)" stroke-width="1" opacity="0.984313725490196" d="M 246.5 199 Q 252.6 198.4 255.5 201 L 293 238.5 Q 296.8 241.7 296 249.5 Q 294.6 255.6 289.5 258 Q 286.3 260.3 279.5 259 L 275.5 257 L 238 219.5 Q 234.8 216.2 236 208.5 L 241.5 201 L 246.5 199 Z " /><path fill="rgb(207,195,242)" stroke="rgb(207,195,242)" stroke-width="1" opacity="0.984313725490196" d="M 305.5 209 Q 316.6 207.4 320 213.5 Q 323.2 216.8 322 224.5 L 316.5 232 Q 313.6 234.6 307.5 234 L 300 229.5 Q 296.2 226.3 297 218.5 L 303.5 210 L 305.5 209 Z " /><path fill="rgb(126,75,205)" stroke="rgb(126,75,205)" stroke-width="1" opacity="0.996078431372549" d="M 299.5 123 L 302 123.5 L 299.5 124 L 299.5 123 Z " /><path fill="rgb(126,75,205)" stroke="rgb(126,75,205)" stroke-width="1" opacity="0.996078431372549" d="M 304.5 124 L 307 124.5 L 304.5 125 L 304.5 124 Z " /><path fill="rgb(126,75,205)" stroke="rgb(126,75,205)" stroke-width="1" opacity="0.996078431372549" d="M 299.5 125 L 302 125.5 L 299.5 126 L 299.5 125 Z " /><path fill="rgb(126,75,205)" stroke="rgb(126,75,205)" stroke-width="1" opacity="0.996078431372549" d="M 279.5 126 L 297.5 126 L 318.5 130 L 321.5 128 L 321.5 129 L 319 130.5 Q 342.6 138.9 357 156.5 L 368 173.5 L 367.5 175 L 370 176.5 L 369 178.5 L 370 181 Q 372.7 179.9 372 182.5 L 373 184.5 L 373 188.5 Q 372.3 190.8 374.5 190 L 374 191.5 L 376 199.5 Q 374.8 202 371 201 Q 371.8 197.2 368.5 196 L 368 197.5 L 369 200 L 352.5 200 L 351.5 201 L 351 198.5 L 352 196.5 L 351 194 Q 347.7 195.3 349 190.5 L 347 186 L 344 186.5 Q 349.2 189.3 348 198.5 L 347 198.5 Q 348.2 188.8 342.5 186 L 339 184.5 L 340.5 184 L 342 184.5 Q 342.8 182.3 340.5 183 L 334.5 181 L 327 184.5 L 328 185.5 L 324 189.5 L 322.5 194 L 322 191.5 L 324 188.5 L 321.5 187 L 321 188.5 L 321.5 190 L 320 189.5 L 321 191.5 L 319 191.5 L 320 194.5 Q 318.8 197 315 196 L 315 198 Q 311.3 196.5 312 199.5 L 312.5 201 L 307.5 200 L 268 200 L 266.5 196 L 264 196.5 L 266 199.5 L 263 200.5 L 264 203 L 261.5 204 L 262.5 201 L 258 198.5 Q 257.3 196.3 259.5 197 L 258.5 195 Q 254.3 193.7 256 198.5 L 253 196.5 Q 252.2 193.9 255.5 195 L 255.5 194 L 253.5 193 L 251.5 195 L 243.5 195 L 242 196.5 L 250 197.5 L 236 199.5 L 236.5 201 L 233 200 L 232.5 202 L 232 200 L 230 199.5 L 230.5 198 L 227 199.5 Q 227.8 202.1 224.5 201 L 223.5 200 L 207 200 L 208 196.5 L 205 196.5 L 203.5 201 L 203 198.5 L 204 193.5 L 204 191.5 L 206 183.5 L 205.5 182 Q 206.7 184.3 208 181.5 L 207.5 180 L 206 180.5 L 209.5 174 L 211 174.5 L 210 172.5 L 221.5 156 L 224 154.5 L 228.5 149 L 231 147.5 L 233.5 144 L 239 142 Q 237.9 139.3 240.5 140 L 259.5 130 L 279.5 126 Z M 325 184 L 325 186 L 324 188 L 327 186 L 325 184 Z M 343 184 L 343 186 L 345 185 L 343 184 Z M 347 184 L 348 186 Q 349 183 347 184 Z M 371 188 L 369 192 L 371 192 L 371 188 Z M 244 193 L 244 194 L 246 194 L 244 193 Z M 240 194 L 240 195 L 243 195 L 240 194 Z M 305 196 L 308 199 L 312 198 L 305 196 Z " /><path fill="rgb(126,75,205)" stroke="rgb(126,75,205)" stroke-width="1" opacity="0.996078431372549" d="M 247.5 132 L 246.5 134 L 244.5 135 L 245.5 133 L 247.5 132 Z " /><path fill="rgb(126,75,205)" stroke="rgb(126,75,205)" stroke-width="1" opacity="0.996078431372549" d="M 330.5 132 L 331.5 134 L 330.5 132 Z " /><path fill="rgb(126,75,205)" stroke="rgb(126,75,205)" stroke-width="1" opacity="0.996078431372549" d="M 337.5 136 L 338.5 138 L 337.5 136 Z " /><path fill="rgb(126,75,205)" stroke="rgb(126,75,205)" stroke-width="1" opacity="0.996078431372549" d="M 331.5 183 L 338 183.5 L 331.5 184 L 331.5 183 Z " /><path fill="rgb(126,75,205)" stroke="rgb(126,75,205)" stroke-width="1" opacity="0.996078431372549" d="M 322.5 198 L 323 200.5 L 322 200.5 L 322.5 198 Z " /><path fill="rgb(126,75,205)" stroke="rgb(126,75,205)" stroke-width="1" opacity="0.996078431372549" d="M 240.5 201 L 238 204.5 L 236.5 208 L 236 206.5 L 240.5 201 Z " /><path fill="rgb(126,75,205)" stroke="rgb(126,75,205)" stroke-width="1" opacity="0.996078431372549" d="M 256.5 201 L 295 240.5 L 293 239.5 L 256.5 201 Z " /><path fill="rgb(126,75,205)" stroke="rgb(126,75,205)" stroke-width="1" opacity="0.996078431372549" d="M 323.5 202 L 324.5 204 L 323.5 202 Z " /><path fill="rgb(126,75,205)" stroke="rgb(126,75,205)" stroke-width="1" opacity="0.996078431372549" d="M 345.5 203 L 342.5 207 L 345.5 203 Z " /><path fill="rgb(126,75,205)" stroke="rgb(126,75,205)" stroke-width="1" opacity="0.996078431372549" d="M 320.5 205 L 322 209.5 L 321 209.5 L 320.5 205 Z " /><path fill="rgb(126,75,205)" stroke="rgb(126,75,205)" stroke-width="1" opacity="0.996078431372549" d="M 349.5 205 L 350.5 207 Q 347.7 207.7 349.5 205 Z " /><path fill="rgb(126,75,205)" stroke="rgb(126,75,205)" stroke-width="1" opacity="0.996078431372549" d="M 327.5 206 L 328.5 208 L 327.5 206 Z " /><path fill="rgb(126,75,205)" stroke="rgb(126,75,205)" stroke-width="1" opacity="0.996078431372549" d="M 306.5 208 L 313 208.5 L 306.5 209 L 306.5 208 Z " /><path fill="rgb(126,75,205)" stroke="rgb(126,75,205)" stroke-width="1" opacity="0.996078431372549" d="M 314.5 209 L 317 210.5 L 315.5 210 L 314.5 209 Z " /><path fill="rgb(126,75,205)" stroke="rgb(126,75,205)" stroke-width="1" opacity="0.996078431372549" d="M 235.5 210 L 236 213.5 L 235 213.5 L 235.5 210 Z " /><path fill="rgb(126,75,205)" stroke="rgb(126,75,205)" stroke-width="1" opacity="0.996078431372549" d="M 302.5 210 L 299 214.5 L 298.5 216 L 298 214.5 L 302.5 210 Z " /><path fill="rgb(126,75,205)" stroke="rgb(126,75,205)" stroke-width="1" opacity="0.996078431372549" d="M 322.5 219 L 323 222.5 L 322 222.5 L 322.5 219 Z " /><path fill="rgb(126,75,205)" stroke="rgb(126,75,205)" stroke-width="1" opacity="0.996078431372549" d="M 321.5 225 L 322 226.5 L 320 227.5 L 321.5 225 Z " /><path fill="rgb(126,75,205)" stroke="rgb(126,75,205)" stroke-width="1" opacity="0.996078431372549" d="M 298.5 227 L 299.5 229 L 298.5 227 Z " /><path fill="rgb(126,75,205)" stroke="rgb(126,75,205)" stroke-width="1" opacity="0.996078431372549" d="M 319.5 229 L 318.5 231 L 319.5 229 Z " /><path fill="rgb(126,75,205)" stroke="rgb(126,75,205)" stroke-width="1" opacity="0.996078431372549" d="M 294.5 253 L 290.5 258 L 294.5 253 Z " /><path fill="rgb(126,75,205)" stroke="rgb(126,75,205)" stroke-width="1" opacity="0.996078431372549" d="M 280.5 259 L 286 259.5 L 280.5 260 L 280.5 259 Z " /><path fill="rgb(94,49,164)" stroke="rgb(94,49,164)" stroke-width="1" opacity="0.9568627450980393" d="M 274.5 125 L 279 126.5 L 267.5 128 L 267.5 127 L 270.5 126 L 272.5 126 L 274.5 125 Z " /><path fill="rgb(94,49,164)" stroke="rgb(94,49,164)" stroke-width="1" opacity="0.9568627450980393" d="M 280.5 125 L 297 125.5 L 280.5 126 L 280.5 125 Z " /><path fill="rgb(94,49,164)" stroke="rgb(94,49,164)" stroke-width="1" opacity="0.9568627450980393" d="M 298.5 126 Q 306.7 124.3 310 127.5 L 305.5 128 Q 304 125.5 298.5 127 L 298.5 126 Z " /><path fill="rgb(94,49,164)" stroke="rgb(94,49,164)" stroke-width="1" opacity="0.9568627450980393" d="M 263.5 128 L 266 128.5 L 263.5 129 L 263.5 128 Z " /><path fill="rgb(94,49,164)" stroke="rgb(94,49,164)" stroke-width="1" opacity="0.9568627450980393" d="M 311.5 128 L 315 128.5 L 311.5 129 L 311.5 128 Z " /><path fill="rgb(94,49,164)" stroke="rgb(94,49,164)" stroke-width="1" opacity="0.9568627450980393" d="M 319.5 130 L 323 131.5 L 321.5 132 L 319.5 130 Z " /><path fill="rgb(94,49,164)" stroke="rgb(94,49,164)" stroke-width="1" opacity="0.9568627450980393" d="M 254.5 131 L 256 131.5 Q 232.6 140.6 218.5 159 L 217 156.5 L 227 148.5 Q 224.2 146.8 228.5 145 L 231 146 Q 229.9 143.3 232.5 144 L 243.5 136 L 254.5 131 Z " /><path fill="rgb(94,49,164)" stroke="rgb(94,49,164)" stroke-width="1" opacity="0.9568627450980393" d="M 324.5 132 L 334.5 136 L 349.5 147 L 351 146.5 L 351 148.5 L 353.5 152 L 355.5 153 L 357 152.5 Q 354.5 154 358 155.5 L 360.5 159 L 362 158.5 L 362 160.5 L 367.5 169 L 369 168.5 L 368 170.5 L 369 174 Q 371.7 172.9 371 175.5 L 373 175.5 L 372 177.5 L 374 181.5 L 372 182 Q 363.7 159.2 345.5 145 Q 336.6 137.4 324.5 133 L 324.5 132 Z " /><path fill="rgb(94,49,164)" stroke="rgb(94,49,164)" stroke-width="1" opacity="0.9568627450980393" d="M 214.5 160 L 217 160.5 Q 217.5 165.5 213.5 166 L 211 164.5 L 213.5 164 Q 216.1 164.8 215 161.5 L 214.5 160 Z " /><path fill="rgb(94,49,164)" stroke="rgb(94,49,164)" stroke-width="1" opacity="0.9568627450980393" d="M 211.5 167 L 213 167.5 L 207.5 176 L 205 174.5 L 208 173.5 L 209 170.5 L 208.5 169 L 210 169.5 L 211.5 167 Z " /><path fill="rgb(94,49,164)" stroke="rgb(94,49,164)" stroke-width="1" opacity="0.9568627450980393" d="M 204.5 176 L 207 177 L 205 183 L 203 182.5 L 205 177.5 L 204.5 176 Z " /><path fill="rgb(94,49,164)" stroke="rgb(94,49,164)" stroke-width="1" opacity="0.9568627450980393" d="M 202.5 184 Q 205.1 183.2 204 186.5 L 203 189 Q 200 190 201 187 Q 203.7 188.1 203 185.5 L 202.5 184 Z " /><path fill="rgb(94,49,164)" stroke="rgb(94,49,164)" stroke-width="1" opacity="0.9568627450980393" d="M 374.5 185 L 375.5 187 Q 372.7 187.7 374.5 185 Z " /><path fill="rgb(94,49,164)" stroke="rgb(94,49,164)" stroke-width="1" opacity="0.9568627450980393" d="M 375.5 188 L 376.5 190 Q 373.7 190.7 375.5 188 Z " /><path fill="rgb(94,49,164)" stroke="rgb(94,49,164)" stroke-width="1" opacity="0.9568627450980393" d="M 322.5 190 L 322 191.5 L 322 200.5 L 325 206 L 330.5 209 L 338.5 209 L 346 203.5 L 347.5 200 L 348 202.5 L 342.5 209 Q 338.5 212 330.5 211 L 327.5 208 Q 326.3 210.2 325 207.5 Q 319.4 203.1 321 191.5 L 322.5 190 Z " /><path fill="rgb(94,49,164)" stroke="rgb(94,49,164)" stroke-width="1" opacity="0.9568627450980393" d="M 376 192 Q 378.7 190.9 378 193.5 L 378 197.5 L 377.5 199 L 376 192 Z " /><path fill="rgb(94,49,164)" stroke="rgb(94,49,164)" stroke-width="1" opacity="0.9568627450980393" d="M 200.5 193 L 201 196.5 L 199 203.5 L 199 229.5 L 201 232.5 L 201 234.5 L 200.5 240 L 199 237.5 L 199 235.5 Q 200 230.5 197 229.5 L 198 228.5 L 198 202.5 L 199 199.5 L 199 195.5 L 200.5 193 Z " /><path fill="rgb(94,49,164)" stroke="rgb(94,49,164)" stroke-width="1" opacity="0.9568627450980393" d="M 348.5 194 L 349 197.5 L 348 197.5 L 348.5 194 Z " /><path fill="rgb(94,49,164)" stroke="rgb(94,49,164)" stroke-width="1" opacity="0.9568627450980393" d="M 378.5 200 L 379 205.5 L 378 205.5 L 378.5 200 Z " /><path fill="rgb(94,49,164)" stroke="rgb(94,49,164)" stroke-width="1" opacity="0.9568627450980393" d="M 259.5 203 L 267.5 212 L 259.5 203 Z " /><path fill="rgb(94,49,164)" stroke="rgb(94,49,164)" stroke-width="1" opacity="0.9568627450980393" d="M 236.5 205 L 235.5 207 L 236.5 205 Z " /><path fill="rgb(94,49,164)" stroke="rgb(94,49,164)" stroke-width="1" opacity="0.9568627450980393" d="M 379.5 207 L 380 229.5 L 377 241.5 Q 379.5 243 376 244.5 L 374 249.5 L 374 251.5 L 371 260 Q 367.7 258.7 369 263.5 L 364 271 Q 361.3 269.9 362 272.5 L 358 278 Q 355.3 276.9 356 279.5 L 348 286.5 Q 348.8 288.8 346.5 288 L 334.5 297 L 318.5 304 L 301.5 308 L 276.5 308 L 259.5 304 L 245.5 298 Q 230.8 289.7 220 277.5 Q 206.5 263.5 201 241.5 L 202.5 239 L 204 243.5 L 204 245.5 L 206.5 254 L 208 253.5 L 207 255.5 L 209 260 Q 211.7 258.9 211 261.5 L 212 265 Q 214.7 263.9 214 266.5 L 217 271 L 220 272.5 L 219 274.5 Q 221 272.8 223 276.5 L 225.5 280 L 227.5 281 L 229.5 280 L 238 283 Q 236.9 285.7 239.5 285 L 240.5 284 L 263.5 283 L 264.5 284 L 336.5 284 L 335.5 282 L 328 281.5 L 336 280.5 L 335.5 279 L 340.5 280 L 343 276 L 347 276.5 L 344 277 L 344 280 Q 340.3 278.5 341 281.5 L 342 284 Q 345.8 285.5 345 282.5 L 344.5 281 L 346.5 281 L 348.5 282 Q 350.3 278.9 352 280.5 L 352.5 277 L 354.5 278 L 353.5 275 L 356 276.5 L 365.5 263 L 367 263.5 L 373 249.5 Q 370.5 248 374 246.5 Q 377 242.5 377 235.5 L 377 233.5 L 379 227.5 L 379.5 207 Z " /><path fill="rgb(94,49,164)" stroke="rgb(94,49,164)" stroke-width="1" opacity="0.9568627450980393" d="M 302.5 209 L 300.5 212 L 299 211.5 L 302.5 209 Z " /><path fill="rgb(94,49,164)" stroke="rgb(94,49,164)" stroke-width="1" opacity="0.9568627450980393" d="M 318.5 210 L 319.5 212 L 318.5 210 Z " /><path fill="rgb(94,49,164)" stroke="rgb(94,49,164)" stroke-width="1" opacity="0.9568627450980393" d="M 320.5 213 Q 322.8 212.3 322 214.5 Q 325.6 217.4 324 225.5 L 320 233 L 317 233.5 L 317.5 235 L 306.5 236 L 302.5 235 L 299 231.5 Q 299.7 228.9 297 230 L 297 227.5 L 295 221.5 L 297.5 215 L 297 216.5 L 297 225.5 L 300 231 L 305.5 234 L 313.5 234 L 321 228.5 Q 323.7 225.2 323 218.5 L 320.5 213 Z " /><path fill="rgb(94,49,164)" stroke="rgb(94,49,164)" stroke-width="1" opacity="0.9568627450980393" d="M 235.5 215 Q 238.7 224.3 246.5 229 Q 248.8 228.3 248 230.5 L 275.5 258 Q 279.1 260.9 286.5 260 Q 292.6 258.6 295 253.5 L 297 245.5 Q 295.4 237.6 290 233.5 L 291 233.5 L 293 236.5 L 297 240.5 L 298 250.5 L 291.5 260 Q 288.9 259.3 290 262 L 285.5 262 L 282.5 263 L 280.5 262 L 279 262.5 Q 279.8 259.9 276.5 261 L 272 257.5 Q 272.8 255.3 270.5 256 L 269 253 Q 266.3 251.9 267 254.5 L 266 254.5 L 267 251.5 L 261 246.5 L 255.5 239 L 254 239.5 L 254.5 238 L 252 238 Q 253.1 235.3 250.5 236 L 248 232 Q 245.3 233.1 246 230.5 L 243 229 L 241.5 225 L 240 225.5 L 239.5 223 Q 237.7 225.7 236 221.5 Q 238.5 220 235 218.5 L 235.5 215 Z " /><path fill="rgb(94,49,164)" stroke="rgb(94,49,164)" stroke-width="1" opacity="0.9568627450980393" d="M 271.5 215 L 275 217 L 275 219 L 277 219 Q 275.9 221.7 278.5 221 L 278.5 222 L 271.5 215 Z " /><path fill="rgb(94,49,164)" stroke="rgb(94,49,164)" stroke-width="1" opacity="0.9568627450980393" d="M 279.5 223 L 283 225 L 282.5 227 L 279.5 223 Z " /><path fill="rgb(94,49,164)" stroke="rgb(94,49,164)" stroke-width="1" opacity="0.9568627450980393" d="M 284.5 228 L 288.5 233 L 284.5 228 Z " /><path fill="rgb(94,49,164)" stroke="rgb(94,49,164)" stroke-width="1" opacity="0.9568627450980393" d="M 233.5 276 L 236 276.5 L 233.5 277 L 233.5 276 Z " /><path fill="rgb(110,57,190)" stroke="rgb(110,57,190)" stroke-width="1" opacity="0.996078431372549" d="M 277.5 125 L 280 125.5 L 277.5 126 L 277.5 125 Z " /><path fill="rgb(110,57,190)" stroke="rgb(110,57,190)" stroke-width="1" opacity="0.996078431372549" d="M 315.5 128 L 319 129.5 L 317.5 130 L 315.5 128 Z " /><path fill="rgb(110,57,190)" stroke="rgb(110,57,190)" stroke-width="1" opacity="0.996078431372549" d="M 255.5 130 Q 257.8 129.3 257 131.5 L 255.5 130 Z " /><path fill="rgb(110,57,190)" stroke="rgb(110,57,190)" stroke-width="1" opacity="0.996078431372549" d="M 241.5 137 L 240.5 139 L 241.5 137 Z " /><path fill="rgb(110,57,190)" stroke="rgb(110,57,190)" stroke-width="1" opacity="0.996078431372549" d="M 339.5 139 L 340.5 141 L 339.5 139 Z " /><path fill="rgb(110,57,190)" stroke="rgb(110,57,190)" stroke-width="1" opacity="0.996078431372549" d="M 235.5 141 L 234.5 143 L 235.5 141 Z " /><path fill="rgb(110,57,190)" stroke="rgb(110,57,190)" stroke-width="1" opacity="0.996078431372549" d="M 343.5 142 L 344.5 144 L 343.5 142 Z " /><path fill="rgb(110,57,190)" stroke="rgb(110,57,190)" stroke-width="1" opacity="0.996078431372549" d="M 230.5 147 L 229.5 149 L 230.5 147 Z " /><path fill="rgb(110,57,190)" stroke="rgb(110,57,190)" stroke-width="1" opacity="0.996078431372549" d="M 351.5 149 L 353.5 152 L 351.5 149 Z " /><path fill="rgb(110,57,190)" stroke="rgb(110,57,190)" stroke-width="1" opacity="0.996078431372549" d="M 352.5 153 L 353.5 155 L 352.5 153 Z " /><path fill="rgb(110,57,190)" stroke="rgb(110,57,190)" stroke-width="1" opacity="0.996078431372549" d="M 223.5 154 L 222.5 156 L 223.5 154 Z " /><path fill="rgb(110,57,190)" stroke="rgb(110,57,190)" stroke-width="1" opacity="0.996078431372549" d="M 218.5 159 L 218 160.5 L 217.5 162 L 217 160.5 L 218.5 159 Z " /><path fill="rgb(110,57,190)" stroke="rgb(110,57,190)" stroke-width="1" opacity="0.996078431372549" d="M 214.5 165 L 213.5 167 L 214.5 165 Z " /><path fill="rgb(110,57,190)" stroke="rgb(110,57,190)" stroke-width="1" opacity="0.996078431372549" d="M 363.5 165 L 362.5 167 L 363.5 165 Z " /><path fill="rgb(110,57,190)" stroke="rgb(110,57,190)" stroke-width="1" opacity="0.996078431372549" d="M 212.5 168 L 212 169.5 L 210.5 172 L 211 170.5 L 212.5 168 Z " /><path fill="rgb(110,57,190)" stroke="rgb(110,57,190)" stroke-width="1" opacity="0.996078431372549" d="M 209.5 173 Q 211.8 172.3 211 174.5 L 209 175.5 L 209.5 173 Z " /><path fill="rgb(110,57,190)" stroke="rgb(110,57,190)" stroke-width="1" opacity="0.996078431372549" d="M 370.5 177 L 372 180.5 L 369.5 182 L 370 180.5 L 369 178.5 L 370.5 177 Z " /><path fill="rgb(110,57,190)" stroke="rgb(110,57,190)" stroke-width="1" opacity="0.996078431372549" d="M 206.5 179 L 208 181.5 Q 204.1 183.1 205 189.5 L 207 193.5 L 206 193.5 L 204.5 190 L 203 192.5 L 204 197.5 L 203 200.5 L 204 200.5 L 205.5 196 L 208 196.5 L 207 200 L 223.5 200 L 227 201 L 228.5 198 L 231 198.5 L 230.5 200 Q 232.8 199.3 232 201.5 L 233 201.5 Q 232.2 198.9 235.5 200 L 242 198.5 L 240 197.5 L 243 195.5 L 239 194.5 L 245.5 193 L 245.5 194 L 243 194.5 L 251.5 195 Q 253 191.5 254.5 194 L 260 196.5 L 258 197 L 259.5 200 L 262.5 201 L 266 199.5 L 264.5 197 L 263.5 199 L 263 197.5 L 266.5 196 L 268 200 L 307.5 200 L 312.5 201 L 312 199.5 Q 312.8 196.9 309.5 198 L 307.5 199 L 304 196.5 L 305.5 196 L 315 198 Q 313.7 194.7 318.5 196 L 320 193.5 L 319 191.5 L 321.5 187 L 324 188 L 323 185.5 L 326 184 L 326 186.5 L 321.5 191 L 320 191.5 L 321 192.5 L 321 200.5 L 324.5 206 L 326 205.5 L 325 207.5 Q 326.3 210.2 327.5 208 L 330.5 211 Q 342 212 346 205.5 L 348 200.5 Q 345.5 199 349 197.5 L 348 191.5 L 343 184 L 345 184.5 L 344.5 186 L 347 185.5 L 346.5 184 Q 348.8 183.3 348 185.5 L 350 188.5 L 348 188.5 L 349 194 Q 351.7 192.9 351 195.5 L 351 197.5 L 352.5 200 L 368.5 200 L 369 198.5 L 368 196.5 L 371 198.5 Q 369.7 202.7 374.5 201 Q 377.3 199.8 375 198.5 L 374 191.5 L 374.5 190 Q 372.3 190.8 373 188.5 L 372 185.5 L 373.5 184 L 376 190.5 L 379 206.5 L 379 227.5 L 376 234.5 L 377 238.5 L 372 248.5 L 373 250.5 L 366.5 264 L 365 263.5 L 354.5 278 L 352.5 277 L 350.5 282 Q 349 279.5 347.5 283 L 345.5 282 L 345 283.5 L 345.5 285 L 342 284 L 341 280 L 328 281.5 L 335.5 282 L 337 283.5 L 264.5 284 Q 262.8 281.2 256.5 283 L 255.5 284 L 240.5 284 L 238 285 Q 239.1 282.3 236.5 283 L 232.5 282 L 231 282.5 L 231.5 281 L 229.5 282 L 229.5 280 L 227.5 281 L 223 277.5 L 220.5 274 L 219 274.5 L 220 272.5 L 217 271 L 214 265 Q 211 266.3 212 262.5 L 211 260 Q 208.3 261.1 209 258.5 L 207 255.5 L 208 253.5 L 206 253.5 L 203 244.5 L 204 242.5 L 202.5 239 L 201.5 241 L 200 233.5 L 200 231.5 L 199 229.5 L 199 203.5 L 204 183 L 206 182.5 L 205.5 181 L 207 180.5 L 206.5 179 Z M 253 195 L 253 197 L 256 199 Q 258 193 253 195 Z M 243 197 L 243 198 L 250 198 L 243 197 Z M 245 199 L 243 200 L 241 200 L 239 203 Q 236 202 237 205 L 235 207 L 235 211 L 236 215 L 235 219 L 238 223 Q 240 222 238 221 L 247 229 L 242 226 L 243 229 L 246 231 Q 245 233 248 232 L 251 236 Q 253 235 252 238 L 255 238 L 248 231 L 259 241 L 256 240 L 261 247 L 267 252 Q 266 254 269 253 L 271 256 Q 273 255 272 258 L 277 261 Q 280 260 279 263 L 281 262 L 283 263 L 286 262 L 290 262 Q 289 259 292 260 L 298 251 L 297 241 Q 296 238 295 240 Q 296 238 293 237 L 291 234 L 290 234 L 285 228 Q 282 229 283 225 L 279 223 L 279 221 Q 276 222 277 219 L 275 219 L 275 217 L 272 215 Q 269 216 270 213 L 268 213 L 268 212 L 256 200 L 245 199 Z M 264 201 L 262 203 L 264 203 L 264 201 Z M 350 205 Q 348 208 351 207 L 350 205 Z M 310 207 L 309 208 Q 303 206 304 210 L 303 209 L 300 211 Q 301 213 297 216 L 298 217 L 297 216 L 295 222 L 297 228 L 297 230 Q 300 229 299 232 L 303 235 L 307 236 L 318 235 L 317 234 L 320 233 L 324 226 Q 325 219 323 216 L 322 216 L 322 215 Q 323 212 320 213 L 320 212 Q 319 209 318 211 L 316 208 L 314 209 L 310 207 Z M 322 207 L 321 210 L 322 210 L 322 207 Z M 241 223 L 241 226 Q 244 225 241 223 Z M 234 276 L 234 277 L 236 277 L 234 276 Z M 343 276 L 343 278 L 342 280 Q 346 281 344 277 L 347 277 L 343 276 Z " /><path fill="rgb(110,57,190)" stroke="rgb(110,57,190)" stroke-width="1" opacity="0.996078431372549" d="M 334.5 181 L 342 183 L 341.5 185 L 337.5 183 Q 330.5 182 327.5 185 L 328.5 183 L 334.5 181 Z " /><path fill="rgb(110,57,190)" stroke="rgb(110,57,190)" stroke-width="1" opacity="0.996078431372549" d="M 370.5 188 L 371 192 L 369 191.5 L 370.5 188 Z " /><path fill="rgb(110,57,190)" stroke="rgb(110,57,190)" stroke-width="1" opacity="0.996078431372549" d="M 260.5 242 L 269.5 252 L 260.5 242 Z " /><path fill="rgb(110,57,190)" stroke="rgb(110,57,190)" stroke-width="1" opacity="0.996078431372549" d="M 296.5 245 L 297 247.5 L 296 247.5 L 296.5 245 Z " /><path fill="rgb(110,57,190)" stroke="rgb(110,57,190)" stroke-width="1" opacity="0.996078431372549" d="M 271.5 253 L 275.5 258 L 271.5 253 Z " /></svg>